/* XPM */
static const char *drag_arrows_normal[] = {
/* columns rows colors chars-per-pixel */
"5 8 2 1",
"  c black",
". c gray100",
/* pixels */
".. ..",
".   .",
"     ",
".....",
".....",
"     ",
".   .",
".. .."
};
